<?xml version="1.0" encoding="utf-8"?>
<svg version="1.1" id="Ebene_1" xmlns="http://www.w3.org/2000/svg" xmlns:xlink="http://www.w3.org/1999/xlink" x="0px" y="0px"
	 viewBox="0 0 51.7 51.7" style="enable-background:new 0 0 51.7 51.7;" xml:space="preserve">
<rect fill="#00285F" width="51.7" height="51.7"/>
<path fill="#FFFFFF" d="M12.8,19H6.5v-3.7h6.4V8.9h4.9v6.4h19.4V19H17.7v13.4c0,2.4,0.6,4.1,1.7,5.1c0.9,0.8,2.1,1.1,3.3,1.3
	c1.6,0.2,3.2,0.2,4.7,0.2c1.6-0.1,4.1-0.1,5.3-1.4c0.9-1,1.3-2.8,1.3-5.6v-2h4v3c0,1.3-0.1,2.6-0.2,3.7c-0.2,1.2-0.6,2.2-1.4,3.1
	c-0.7,0.8-1.8,1.5-3.3,2c-1.5,0.5-3.6,0.8-6.2,0.8h-2.7c-2.2,0-4.1-0.2-5.6-0.7c-1.5-0.5-2.6-1.1-3.5-1.9c-0.8-0.8-1.4-1.7-1.8-2.8
	c-0.4-1-0.5-2.1-0.5-3.1V19z"/>
	<path fill="#FFFFFF" d="M39.6,38.6h3.7v4h-3.7V38.6z"/>
</svg>
